<svg width="16" height="16" viewBox="0 0 16 16" fill="none" xmlns="http://www.w3.org/2000/svg">
<path d="M6.13642 10.1363C5.84352 10.4292 5.84352 10.9041 6.13642 11.197C6.42931 11.4899 6.90418 11.4899 7.19708 11.197L6.13642 10.1363ZM9.33341 7.99998L9.86374 8.53031C10.1566 8.23742 10.1566 7.76254 9.86374 7.46965L9.33341 7.99998ZM7.19708 4.80298C6.90418 4.51009 6.42931 4.51009 6.13642 4.80298C5.84352 5.09588 5.84352 5.57075 6.13642 5.86364L7.19708 4.80298ZM7.19708 11.197L9.86374 8.53031L8.80308 7.46965L6.13642 10.1363L7.19708 11.197ZM9.86374 7.46965L7.19708 4.80298L6.13642 5.86364L8.80308 8.53031L9.86374 7.46965Z" fill="white"/>
</svg>
