<svg width="36" height="36" viewBox="0 0 36 36" fill="none" xmlns="http://www.w3.org/2000/svg">
<g clip-path="url(#clip0_3042_652)">
<path d="M35.283 15.5985L31.5 12.0675V12C32.328 12 30.1211 12 31.5 12C30.1211 12 30.672 12 31.5 12V12.0675L19.0245 0.403496C18.447 -0.133504 17.553 -0.135004 16.977 0.403496L0.6795 15.6345C0.2415 16.0725 0 16.647 0 17.25C0 18.4905 1.0095 19.5 2.25 19.5H4.5V32.25C4.5 34.317 6.183 36 8.25 36H27.75C29.817 36 31.5 34.317 31.5 32.25V19.5H33.75C34.9905 19.5 36 18.4905 36 17.25C36 16.647 35.7585 16.0725 35.283 15.5985ZM12 23.9625V25.125C12 26.1285 10.7835 26.6235 10.08 25.92L7.83 23.67C7.3905 23.2305 7.3905 22.518 7.83 22.0785L10.08 19.8285C10.788 19.122 12 19.6275 12 20.625V21.6735C12.4335 21.5175 12.75 21.111 12.75 20.625V16.125C12.75 15.504 13.254 15 13.875 15C14.496 15 15 15.504 15 16.125V20.625C15 22.3575 13.683 23.7735 12 23.9625ZM21.045 27.42L18.795 29.67C18.576 29.8905 18.288 30 18 30C17.712 30 17.424 29.8905 17.205 29.67L14.955 27.42C14.247 26.715 14.7465 25.5 15.75 25.5H16.875V13.125C16.875 12.504 17.379 12 18 12C18.621 12 19.125 12.504 19.125 13.125V25.5H20.25C21.2535 25.5 21.753 26.715 21.045 27.42ZM28.17 23.67L25.92 25.92C25.2165 26.6235 24 26.133 24 25.125V23.9625C22.317 23.7735 21 22.3575 21 20.625V16.125C21 15.504 21.504 15 22.125 15C22.746 15 23.25 15.504 23.25 16.125V20.625C23.25 21.1125 23.5665 21.5175 24 21.6735V20.625C24 19.6275 25.212 19.122 25.92 19.83L28.17 22.08C28.6095 22.5195 28.6095 23.2305 28.17 23.67Z" fill="#1B5691"/>
</g>
<defs>
<clipPath id="clip0_3042_652">
<rect width="36" height="36" fill="white"/>
</clipPath>
</defs>
</svg>
