<svg width="35" height="30" viewBox="0 0 35 30" fill="none" xmlns="http://www.w3.org/2000/svg">
<path d="M7.79545 29.8365C5.40909 29.8365 3.5 28.9373 2.06818 27.139C0.689394 25.2861 0 23.1063 0 20.5995C0 18.5286 0.371212 16.594 1.11364 14.7956C1.85606 12.9973 2.78409 11.3624 3.89773 9.89101C5.06439 8.41962 6.28409 7.13896 7.55682 6.04905C8.88258 4.90463 10.1023 3.95095 11.2159 3.18801C12.3295 2.37057 13.2311 1.77112 13.9205 1.38965C14.6629 1.00817 15.0076 0.817439 14.9545 0.817439L16.7841 3.3515C16.3068 3.56948 15.6705 4.00545 14.875 4.6594C14.0795 5.25886 13.2841 5.99455 12.4886 6.86648C11.7462 7.73842 11.0833 8.6921 10.5 9.72752C9.91667 10.7084 9.625 11.6621 9.625 12.5886C9.625 13.1335 9.94318 13.6785 10.5795 14.2234C11.2159 14.7139 11.9053 15.3134 12.6477 16.0218C13.3902 16.6757 14.0795 17.4932 14.7159 18.4741C15.3523 19.4005 15.6705 20.545 15.6705 21.9074C15.6705 23.1063 15.4318 24.1962 14.9545 25.1771C14.5303 26.158 13.947 27.0027 13.2045 27.7112C12.5152 28.3651 11.6932 28.8828 10.7386 29.2643C9.78409 29.6458 8.80303 29.8365 7.79545 29.8365ZM27.3636 30C26.1439 30 25.0303 29.7275 24.0227 29.1826C23.0152 28.6376 22.1402 27.9019 21.3977 26.9755C20.6553 26.049 20.072 24.9864 19.6477 23.7875C19.2765 22.5341 19.0909 21.1989 19.0909 19.782C19.0909 16.9482 19.6742 14.3324 20.8409 11.9346C22.0606 9.48229 23.3864 7.3842 24.8182 5.64033C26.5152 3.56948 28.4508 1.68937 30.625 0L32.9318 2.20708C32.4545 2.53406 31.8712 3.05177 31.1818 3.76022C30.5455 4.46866 29.9356 5.31335 29.3523 6.29428C28.822 7.22071 28.3447 8.20163 27.9205 9.23706C27.5492 10.2725 27.3636 11.2807 27.3636 12.2616C27.3636 12.9155 27.7614 13.4605 28.5568 13.8965C29.3523 14.3324 30.2273 14.8774 31.1818 15.5313C32.1364 16.1853 33.0114 17.03 33.8068 18.0654C34.6023 19.0463 35 20.436 35 22.2343C35 23.3242 34.7879 24.3324 34.3636 25.2589C33.9394 26.1853 33.3561 27.0027 32.6136 27.7112C31.9242 28.4196 31.1023 28.9918 30.1477 29.4278C29.2462 29.8093 28.3182 30 27.3636 30Z" fill="white"/>
</svg>
