<svg width="36" height="36" viewBox="0 0 36 36" fill="none" xmlns="http://www.w3.org/2000/svg">
<g clip-path="url(#clip0_3042_634)">
<path d="M35.4284 16.2726L18.7784 0.312721C18.3436 -0.104485 17.6564 -0.104485 17.2216 0.312721L0.555084 16.289C0.202423 16.6417 0 17.1276 0 17.6242C0 18.6577 0.841553 19.4992 1.87509 19.4992H4.5V32.9992C4.5 34.6565 5.84253 35.9991 7.50009 35.9991H28.4999C30.1575 35.9991 31.5 34.6565 31.5 32.9992V19.4992H34.1249C35.1584 19.4992 36 18.6577 36 17.6242C36 17.1276 35.7976 16.6417 35.4284 16.2726Z" fill="#1B5691"/>
<g clip-path="url(#clip1_3042_634)">
<path d="M27 19.8104L25.4595 17.8036L25.8041 15.3104L23.4527 14.378L22.5203 12.0266L20.027 12.3712L18 10.8104L15.9932 12.3509L13.5 12.0063L12.5676 14.3577L10.2162 15.2901L10.5608 17.7834L9 19.8104L10.5405 21.8172L10.1959 24.3104L12.5473 25.2428L13.4797 27.5942L15.973 27.2496L17.9797 28.7901L19.9865 27.2496L22.4797 27.5942L23.4122 25.2428L25.7635 24.2901L25.4189 21.7969L27 19.8104ZM17.2703 22.7293L14.2703 20.2563L14.9189 19.4658L17.1486 21.2901L20.9595 16.8915L21.7297 17.5604L17.2703 22.7293Z" fill="white"/>
</g>
</g>
<defs>
<clipPath id="clip0_3042_634">
<rect width="36" height="36" fill="white"/>
</clipPath>
<clipPath id="clip1_3042_634">
<rect width="18" height="18" fill="white" transform="translate(9 10.8)"/>
</clipPath>
</defs>
</svg>
