<svg width="20" height="21" viewBox="0 0 20 21" fill="none" xmlns="http://www.w3.org/2000/svg">
<mask id="mask0_26047_4585" style="mask-type:alpha" maskUnits="userSpaceOnUse" x="0" y="0" width="20" height="21">
<g clip-path="url(#clip0_26047_4585)">
<g clip-path="url(#clip1_26047_4585)">
<path d="M19.4 10.9902L10.7 14.9902C10.3 15.1402 9.89998 15.1402 9.49998 14.9902L0.849976 10.9902M19.4 15.6402L10.7 19.6402C10.3 19.7902 9.89998 19.7902 9.49998 19.6402L0.849976 15.6402M10.8 10.3402C10.35 10.5402 9.89998 10.5402 9.44998 10.3402L1.29998 6.59023C0.899976 6.39023 0.749976 5.89023 0.949976 5.54023C1.04998 5.39023 1.14998 5.24023 1.29998 5.19023L9.44998 1.39023C9.89998 1.19023 10.35 1.19023 10.8 1.39023L18.95 5.14023C19.35 5.34023 19.5 5.84023 19.3 6.19023C19.2 6.34023 19.1 6.49023 18.95 6.54023L10.8 10.3402Z" stroke="white" stroke-width="1.4285" stroke-linecap="round" stroke-linejoin="round"/>
</g>
</g>
</mask>
<g mask="url(#mask0_26047_4585)">
<rect y="0.390137" width="20" height="20" fill="#FF492C"/>
</g>
<defs>
<clipPath id="clip0_26047_4585">
<rect width="20" height="20" fill="white" transform="translate(0 0.390137)"/>
</clipPath>
<clipPath id="clip1_26047_4585">
<rect width="20" height="20" fill="white" transform="translate(0 0.390137)"/>
</clipPath>
</defs>
</svg>
