<svg width="46" height="46" viewBox="0 0 46 46" fill="none" xmlns="http://www.w3.org/2000/svg">
<g filter="url(#filter0_d_3045_2908)">
<rect x="5" y="2" width="36" height="36" rx="18" fill="white"/>
<rect x="6" y="3" width="34" height="34" rx="17" stroke="#1B5691" stroke-width="2"/>
</g>
<path d="M26.5381 23.9609V26H18.8428C18.9261 25.2292 19.1761 24.5 19.5928 23.8125C20.0094 23.1198 20.8324 22.2031 22.0615 21.0625C23.0511 20.1406 23.6579 19.5156 23.8818 19.1875C24.1839 18.7344 24.335 18.2865 24.335 17.8438C24.335 17.3542 24.2021 16.9792 23.9365 16.7188C23.6761 16.4531 23.3141 16.3203 22.8506 16.3203C22.3923 16.3203 22.0277 16.4583 21.7568 16.7344C21.486 17.0104 21.3298 17.4688 21.2881 18.1094L19.1006 17.8906C19.2308 16.6823 19.6396 15.8151 20.3271 15.2891C21.0146 14.763 21.874 14.5 22.9053 14.5C24.0355 14.5 24.9235 14.8047 25.5693 15.4141C26.2152 16.0234 26.5381 16.7812 26.5381 17.6875C26.5381 18.2031 26.4443 18.6953 26.2568 19.1641C26.0745 19.6276 25.7829 20.1146 25.3818 20.625C25.1162 20.9635 24.637 21.4505 23.9443 22.0859C23.2516 22.7214 22.8115 23.1432 22.624 23.3516C22.4417 23.5599 22.2933 23.763 22.1787 23.9609H26.5381Z" fill="#1B5691"/>
<defs>
<filter id="filter0_d_3045_2908" x="0" y="0" width="46" height="46" filterUnits="userSpaceOnUse" color-interpolation-filters="sRGB">
<feFlood flood-opacity="0" result="BackgroundImageFix"/>
<feColorMatrix in="SourceAlpha" type="matrix" values="0 0 0 0 0 0 0 0 0 0 0 0 0 0 0 0 0 0 127 0" result="hardAlpha"/>
<feOffset dy="3"/>
<feGaussianBlur stdDeviation="2.5"/>
<feColorMatrix type="matrix" values="0 0 0 0 0 0 0 0 0 0 0 0 0 0 0 0 0 0 0.12 0"/>
<feBlend mode="normal" in2="BackgroundImageFix" result="effect1_dropShadow_3045_2908"/>
<feBlend mode="normal" in="SourceGraphic" in2="effect1_dropShadow_3045_2908" result="shape"/>
</filter>
</defs>
</svg>
