<svg width="46" height="46" viewBox="0 0 46 46" fill="none" xmlns="http://www.w3.org/2000/svg">
<g filter="url(#filter0_d_3045_2898)">
<rect x="5" y="2" width="36" height="36" rx="18" fill="white"/>
<rect x="6" y="3" width="34" height="34" rx="17" stroke="#1B5691" stroke-width="2"/>
</g>
<path d="M19.0459 22.9609L21.1709 22.7031C21.2386 23.2448 21.4209 23.6589 21.7178 23.9453C22.0146 24.2318 22.374 24.375 22.7959 24.375C23.249 24.375 23.6292 24.2031 23.9365 23.8594C24.249 23.5156 24.4053 23.0521 24.4053 22.4688C24.4053 21.9167 24.2568 21.4792 23.96 21.1562C23.6631 20.8333 23.3011 20.6719 22.874 20.6719C22.5928 20.6719 22.2568 20.7266 21.8662 20.8359L22.1084 19.0469C22.7021 19.0625 23.1553 18.9349 23.4678 18.6641C23.7803 18.388 23.9365 18.0234 23.9365 17.5703C23.9365 17.1849 23.8219 16.8776 23.5928 16.6484C23.3636 16.4193 23.0589 16.3047 22.6787 16.3047C22.3037 16.3047 21.9834 16.4349 21.7178 16.6953C21.4521 16.9557 21.2907 17.3359 21.2334 17.8359L19.21 17.4922C19.3506 16.7995 19.5615 16.2474 19.8428 15.8359C20.1292 15.4193 20.5251 15.0938 21.0303 14.8594C21.5407 14.6198 22.111 14.5 22.7412 14.5C23.8193 14.5 24.6839 14.8438 25.335 15.5312C25.8714 16.0938 26.1396 16.7292 26.1396 17.4375C26.1396 18.4427 25.5902 19.2448 24.4912 19.8438C25.1475 19.9844 25.6709 20.2995 26.0615 20.7891C26.4574 21.2786 26.6553 21.8698 26.6553 22.5625C26.6553 23.5677 26.2881 24.4245 25.5537 25.1328C24.8193 25.8411 23.9053 26.1953 22.8115 26.1953C21.7751 26.1953 20.9157 25.8984 20.2334 25.3047C19.5511 24.7057 19.1553 23.9245 19.0459 22.9609Z" fill="#1B5691"/>
<defs>
<filter id="filter0_d_3045_2898" x="0" y="0" width="46" height="46" filterUnits="userSpaceOnUse" color-interpolation-filters="sRGB">
<feFlood flood-opacity="0" result="BackgroundImageFix"/>
<feColorMatrix in="SourceAlpha" type="matrix" values="0 0 0 0 0 0 0 0 0 0 0 0 0 0 0 0 0 0 127 0" result="hardAlpha"/>
<feOffset dy="3"/>
<feGaussianBlur stdDeviation="2.5"/>
<feColorMatrix type="matrix" values="0 0 0 0 0 0 0 0 0 0 0 0 0 0 0 0 0 0 0.12 0"/>
<feBlend mode="normal" in2="BackgroundImageFix" result="effect1_dropShadow_3045_2898"/>
<feBlend mode="normal" in="SourceGraphic" in2="effect1_dropShadow_3045_2898" result="shape"/>
</filter>
</defs>
</svg>
