<svg width="13" height="62" viewBox="0 0 13 62" fill="none" xmlns="http://www.w3.org/2000/svg">
<path opacity="0.4" d="M5.75583 51.9453L6.69681 51.6068L5.75583 51.9453ZM10.8108 61.1963C10.7024 61.7378 10.1756 62.0889 9.63402 61.9806L0.809044 60.2143C0.2675 60.1059 -0.083642 59.579 0.0247459 59.0374C0.133135 58.4959 0.660009 58.1448 1.20155 58.2532L9.04598 59.8232L10.616 51.9788C10.7244 51.4372 11.2513 51.0861 11.7928 51.1945C12.3344 51.3029 12.6855 51.8297 12.5771 52.3713L10.8108 61.1963ZM12.8651 1.50163C12.5528 2.0402 12.2474 2.58253 11.9492 3.1284L10.1941 2.16948C10.5005 1.60868 10.8141 1.05157 11.1349 0.498374L12.8651 1.50163ZM10.2441 6.44903C9.7039 7.57164 9.19361 8.70678 8.71457 9.85274L6.86931 9.08138C7.36201 7.90273 7.88668 6.73562 8.44198 5.58174L10.2441 6.44903ZM7.36886 13.3316C6.95115 14.5049 6.56641 15.6875 6.21592 16.8775L4.2974 16.3124C4.65851 15.0864 5.05473 13.8686 5.48469 12.6608L7.36886 13.3316ZM5.26552 20.481C4.98312 21.6927 4.73678 22.9102 4.5278 24.1316L2.55645 23.7944C2.77223 22.5331 3.02646 21.2768 3.31773 20.0271L5.26552 20.481ZM4.01301 27.818C3.87955 29.0527 3.78521 30.2897 3.73131 31.5272L1.7332 31.4401C1.789 30.1592 1.88662 28.8796 2.02459 27.603L4.01301 27.818ZM3.69232 35.2443C3.72074 36.4825 3.79101 37.7195 3.90446 38.9534L1.91286 39.1365C1.79515 37.8562 1.7223 36.5735 1.69284 35.2902L3.69232 35.2443ZM4.37434 42.6364C4.57393 43.8543 4.81743 45.0677 5.10616 46.2747L3.16104 46.74C2.86094 45.4854 2.60796 44.2248 2.40067 42.9598L4.37434 42.6364ZM6.10116 49.8493C6.28834 50.4372 6.48684 51.023 6.69681 51.6068L4.81484 52.2837C4.5965 51.6767 4.39009 51.0674 4.19545 50.4562L6.10116 49.8493ZM6.69681 51.6068C6.98322 52.4031 7.27049 53.1748 7.55733 53.9146L5.69259 54.6376C5.39907 53.8806 5.10605 53.0934 4.81484 52.2837L6.69681 51.6068ZM9.49757 58.3911C9.90262 59.2006 10.2926 59.8905 10.6624 60.4454L8.99815 61.5546C8.56834 60.9097 8.1375 60.1425 7.70895 59.2859L9.49757 58.3911Z" fill="#1B5691"/>
</svg>
