<svg width="13" height="62" viewBox="0 0 13 62" fill="none" xmlns="http://www.w3.org/2000/svg">
<path opacity="0.4" d="M7.24417 51.9453L6.30319 51.6068L7.24417 51.9453ZM2.18917 61.1963C2.29756 61.7378 2.82444 62.0889 3.36598 61.9806L12.191 60.2143C12.7325 60.1059 13.0836 59.579 12.9753 59.0374C12.8669 58.4959 12.34 58.1448 11.7984 58.2532L3.95402 59.8232L2.38398 51.9788C2.27559 51.4372 1.74872 51.0861 1.20718 51.1945C0.665631 51.3029 0.314489 51.8297 0.422877 52.3713L2.18917 61.1963ZM0.134916 1.50163C0.447213 2.0402 0.752561 2.58253 1.0508 3.1284L2.80593 2.16948C2.49953 1.60868 2.18586 1.05157 1.86508 0.498374L0.134916 1.50163ZM2.75585 6.44903C3.2961 7.57164 3.80639 8.70678 4.28543 9.85274L6.13069 9.08138C5.63799 7.90273 5.11332 6.73562 4.55802 5.58174L2.75585 6.44903ZM5.63114 13.3316C6.04885 14.5049 6.43359 15.6875 6.78408 16.8775L8.7026 16.3124C8.34149 15.0864 7.94527 13.8686 7.51531 12.6608L5.63114 13.3316ZM7.73448 20.481C8.01688 21.6927 8.26322 22.9102 8.4722 24.1316L10.4436 23.7944C10.2278 22.5331 9.97354 21.2768 9.68227 20.0271L7.73448 20.481ZM8.98699 27.818C9.12045 29.0527 9.21479 30.2897 9.26869 31.5272L11.2668 31.4401C11.211 30.1592 11.1134 28.8796 10.9754 27.603L8.98699 27.818ZM9.30768 35.2443C9.27926 36.4825 9.20899 37.7195 9.09554 38.9534L11.0871 39.1365C11.2049 37.8562 11.2777 36.5735 11.3072 35.2902L9.30768 35.2443ZM8.62566 42.6364C8.42607 43.8543 8.18257 45.0677 7.89384 46.2747L9.83896 46.74C10.1391 45.4854 10.392 44.2248 10.5993 42.9598L8.62566 42.6364ZM6.89884 49.8493C6.71166 50.4372 6.51316 51.023 6.30319 51.6068L8.18516 52.2837C8.4035 51.6767 8.60991 51.0674 8.80455 50.4562L6.89884 49.8493ZM6.30319 51.6068C6.01678 52.4031 5.72951 53.1748 5.44267 53.9146L7.30741 54.6376C7.60093 53.8806 7.89395 53.0934 8.18516 52.2837L6.30319 51.6068ZM3.50243 58.3911C3.09738 59.2006 2.70744 59.8905 2.3376 60.4454L4.00185 61.5546C4.43166 60.9097 4.8625 60.1425 5.29105 59.2859L3.50243 58.3911Z" fill="#1B5691"/>
</svg>
