<svg width="36" height="36" viewBox="0 0 36 36" fill="none" xmlns="http://www.w3.org/2000/svg">
<g clip-path="url(#clip0_3042_666)">
<path d="M33.8505 23.4065C31.9986 21.5532 29.4291 20.7681 26.1291 21.6525L14.3617 9.87321L14.5173 9.28512C15.195 6.74219 14.4627 4.0088 12.6067 2.15283C10.717 0.261632 8.03052 -0.432282 5.48978 0.265639C5.12746 0.365132 4.84543 0.649827 4.74946 1.01313C4.65348 1.37644 4.75874 1.76259 5.02431 2.0283L7.85769 4.86169C8.68604 5.69208 8.67796 7.02197 7.85973 7.84237C7.04797 8.65631 5.68349 8.65505 4.87496 7.84441L2.04102 5.01026C1.77531 4.74441 1.38803 4.64013 1.02472 4.73667C0.661348 4.83314 0.377707 5.11587 0.278566 5.47854C-0.40916 7.99137 0.267387 10.6945 2.16618 12.5933C4.01722 14.4457 6.58356 15.2336 9.8855 14.3473L21.6538 26.1266C20.7756 29.4256 21.5331 31.9703 23.4098 33.847C25.3019 35.7405 27.9897 36.4293 30.5249 35.7337C30.8873 35.6343 31.1694 35.3495 31.2654 34.9862C31.3615 34.6229 31.2563 34.2367 30.9906 33.9709L28.1578 31.1382C27.3295 30.3078 27.3376 28.9777 28.1558 28.1575C28.9777 27.3398 30.3391 27.3528 31.1406 28.1564L33.9747 30.9898C34.2404 31.2555 34.6277 31.3598 34.9909 31.2633C35.3542 31.1667 35.6379 30.8841 35.737 30.5215C36.4247 28.0091 35.7483 25.3053 33.8505 23.4065Z" fill="#1B5691"/>
<path d="M11.2888 18.7442L1.23465 28.7996C-0.410735 30.445 -0.410735 33.1206 1.23465 34.766C2.88003 36.4113 5.5557 36.4113 7.20101 34.766L17.2549 24.7108L11.2888 18.7442ZM6.21017 31.4928C5.79814 31.9049 5.13087 31.9049 4.71884 31.4928C4.30688 31.0809 4.30688 30.4135 4.71884 30.0015L11.1159 23.6033C11.5278 23.1913 12.1953 23.1913 12.6072 23.6033C13.0192 24.0152 13.0192 24.6827 12.6072 25.0946L6.21017 31.4928Z" fill="#1B5691"/>
<path d="M35.6904 2.12716L33.8722 0.308948C33.53 -0.0332625 32.9989 -0.0986532 32.5839 0.150183L26.9908 3.50571C26.4023 3.85875 26.3023 4.67064 26.7875 5.15587L27.2327 5.60095L20.1326 12.6721L23.1163 15.6558L30.2164 8.58466L30.8436 9.21192C31.3288 9.697 32.1407 9.59716 32.4937 9.00864L35.8492 3.4155C36.098 3.00044 36.0326 2.46937 35.6904 2.12716Z" fill="#1B5691"/>
</g>
<defs>
<clipPath id="clip0_3042_666">
<rect width="36" height="36" fill="white"/>
</clipPath>
</defs>
</svg>
